<?xml version="1.0" standalone="no"?>
<!DOCTYPE svg PUBLIC "-//W3C//DTD SVG 20010904//EN"
 "http://www.w3.org/TR/2001/REC-SVG-20010904/DTD/svg10.dtd">
<svg version="1.0" xmlns="http://www.w3.org/2000/svg"
 width="300.000000pt" height="300.000000pt" viewBox="0 0 300.000000 300.000000"
 preserveAspectRatio="xMidYMid meet">
<metadata>
Created by potrace 1.10, written by Peter Selinger 2001-2011
</metadata>
<g transform="translate(0.000000,300.000000) scale(0.100000,-0.100000)"
fill="#000000" stroke="none">
<path d="M1230 2975 c-139 -26 -254 -65 -395 -135 -303 -150 -525 -372 -675
-675 -94 -189 -150 -394 -150 -548 0 -56 1 -59 15 -41 13 17 14 8 14 -86 0
-96 -1 -103 -14 -80 -14 24 -14 23 -15 -31 -1 -148 57 -356 150 -544 151 -304
371 -524 675 -675 191 -95 398 -151 549 -149 l61 0 -39 15 c-22 8 -41 16 -44
19 -2 2 60 4 138 4 78 0 140 -2 138 -5 -3 -2 -22 -10 -44 -18 l-39 -15 61 0
c151 -2 358 54 549 149 304 151 524 371 675 675 72 145 110 258 135 404 17 96
20 201 5 201 -6 0 -10 29 -10 66 0 41 4 63 10 59 15 -9 12 99 -5 196 -25 146
-63 259 -135 404 -151 304 -371 524 -675 675 -145 72 -258 110 -404 135 -97
17 -205 20 -196 5 4 -6 -22 -10 -72 -10 -54 0 -73 3 -63 10 22 15 -110 11
-200 -5z m543 -76 c251 -51 498 -173 672 -333 l60 -55 -47 -1 c-25 0 -69 -5
-96 -11 -45 -11 -51 -10 -76 12 -91 80 -324 197 -456 229 -382 91 -786 16
-1075 -200 -77 -57 -78 -58 -111 -44 -18 8 -58 14 -89 14 -30 0 -55 3 -55 8 1
13 167 141 252 194 150 93 337 165 502 192 132 23 398 20 519 -5z m-70 -174
c176 -26 368 -104 508 -205 91 -65 107 -73 137 -65 15 4 53 11 84 15 44 6 63
15 81 35 l23 28 47 -54 c25 -30 56 -65 67 -79 31 -35 110 -156 110 -166 0 -5
-12 -15 -27 -22 -16 -6 -48 -42 -72 -78 l-43 -66 30 -76 c65 -167 82 -249 89
-443 5 -146 3 -178 -17 -280 -50 -252 -146 -433 -329 -622 -242 -249 -593
-390 -931 -374 -197 9 -337 45 -515 133 -252 124 -454 329 -570 578 -145 311
-149 711 -9 1023 20 45 18 59 -22 123 -42 69 -61 87 -92 92 -22 3 -22 5 19 68
52 79 45 69 121 159 35 41 70 76 78 79 8 3 12 1 8 -3 -14 -14 54 -55 91 -55
20 0 53 -5 74 -11 37 -10 41 -9 145 59 59 38 132 82 162 97 101 51 296 107
410 118 92 9 255 5 343 -8z m-1387 -623 c30 -38 30 -33 -21 -178 -52 -150 -67
-245 -67 -419 0 -267 63 -487 201 -695 186 -282 476 -478 821 -552 126 -28
356 -30 482 -5 458 91 841 418 980 837 54 161 63 222 62 425 -1 179 -3 197
-32 309 -17 65 -45 147 -61 182 -24 52 -27 65 -16 74 8 6 28 34 45 61 18 27
36 49 40 49 11 0 83 -169 114 -266 46 -148 60 -246 59 -419 0 -165 -12 -253
-54 -403 -81 -291 -293 -581 -554 -758 -254 -173 -510 -254 -806 -254 -166 0
-307 22 -454 71 -479 159 -823 536 -947 1036 -19 76 -22 117 -22 303 -1 202 1
222 27 323 29 116 93 290 128 346 l21 35 14 -34 c8 -19 26 -49 40 -68z"/>
<path d="M1360 2680 c-183 -20 -389 -96 -493 -181 -69 -57 -45 -84 111 -131
177 -53 305 -71 527 -71 210 0 319 14 505 65 155 42 190 79 127 133 -20 17
-53 40 -74 51 -21 10 -40 21 -43 24 -18 19 -146 62 -261 89 -98 23 -292 33
-399 21z m361 -50 c116 -24 243 -68 314 -110 28 -16 65 -36 83 -45 35 -17 43
-35 14 -35 -10 0 -22 -4 -28 -10 -16 -16 -242 -69 -362 -85 -144 -19 -324 -19
-477 0 -124 16 -299 56 -349 81 -16 8 -40 14 -53 14 -32 0 -29 18 5 26 15 4
36 15 47 24 67 59 242 120 435 153 77 13 278 6 371 -13z"/>
<path d="M1457 2562 c-32 -35 -15 -82 34 -97 49 -16 95 80 50 105 -30 15 -66
12 -84 -8z"/>
<path d="M446 2433 c-33 -9 -94 -52 -107 -75 -17 -31 -12 -106 9 -138 9 -15
35 -53 56 -86 49 -73 73 -148 87 -272 13 -119 43 -186 106 -242 42 -37 119
-70 164 -70 48 0 50 -11 10 -56 -73 -78 -106 -175 -98 -286 12 -182 145 -349
310 -391 101 -26 191 0 278 81 65 60 91 102 124 202 l22 65 15 -35 c20 -45 51
-73 83 -73 31 0 51 17 74 62 l18 35 22 -60 c70 -185 181 -282 327 -285 197 -5
384 198 386 415 1 118 -26 187 -105 273 -42 46 -43 45 43 58 51 8 150 64 179
101 32 41 59 126 66 205 12 137 29 185 104 299 51 76 56 90 56 138 0 51 -3 57
-39 88 -49 42 -103 58 -181 51 -63 -5 -194 -46 -254 -79 -20 -11 -61 -34 -91
-51 -132 -74 -302 -231 -443 -409 -46 -59 -73 -86 -75 -75 -2 8 4 29 12 46 22
41 20 67 -6 91 -21 19 -23 19 -47 3 -14 -9 -31 -23 -36 -30 -9 -12 -16 -10
-40 12 -37 31 -64 29 -85 -7 -13 -25 -13 -30 3 -57 18 -31 23 -61 9 -61 -4 0
-38 37 -74 83 -99 125 -153 181 -247 261 -140 118 -206 161 -351 225 -101 44
-214 62 -284 44z m263 -77 c164 -69 295 -162 451 -318 92 -93 225 -263 249
-320 22 -53 37 -42 33 26 -3 35 1 62 9 72 10 12 9 20 -2 42 -8 15 -20 31 -26
35 -7 4 -13 17 -13 28 0 36 34 17 59 -34 21 -44 25 -47 40 -33 10 9 23 31 31
51 14 37 50 50 50 18 0 -19 -41 -83 -53 -83 -5 0 1 -13 12 -29 23 -32 27 -56
11 -66 -11 -7 -14 -58 -4 -68 4 -4 24 23 45 59 93 158 290 372 447 484 258
184 501 233 583 118 27 -37 21 -59 -35 -141 -79 -115 -96 -162 -116 -304 -6
-48 -13 -102 -16 -119 -2 -17 -17 -51 -33 -76 -23 -36 -44 -53 -97 -79 -63
-31 -74 -33 -171 -34 -84 0 -103 -3 -101 -14 2 -8 17 -18 34 -23 81 -21 184
-161 199 -269 13 -88 -36 -243 -97 -310 -82 -91 -207 -142 -295 -120 -103 26
-176 90 -223 196 -28 61 -80 231 -80 260 0 23 -30 78 -38 70 -4 -4 -7 -52 -8
-108 -1 -120 -17 -177 -50 -177 -12 0 -26 6 -32 13 -13 16 -32 141 -32 211 0
59 -15 75 -26 29 -17 -79 -28 -117 -60 -213 -42 -123 -59 -153 -120 -210 -58
-54 -105 -73 -179 -74 -121 -2 -244 87 -308 222 -29 61 -32 75 -32 167 0 90 3
106 29 158 32 65 115 145 159 154 15 3 32 13 36 22 8 14 -3 16 -97 16 -90 0
-115 4 -159 24 -101 45 -144 120 -158 276 -11 128 -44 215 -117 311 -67 89
-62 149 15 185 66 31 178 21 286 -25z"/>
<path d="M753 2118 c-26 -13 -39 -59 -23 -87 34 -64 130 -42 130 30 0 55 -53
83 -107 57z m51 -34 c20 -8 20 -28 0 -44 -12 -11 -18 -10 -31 3 -13 13 -14 19
-3 31 14 18 13 18 34 10z"/>
<path d="M2165 2105 c-14 -13 -25 -35 -25 -49 0 -27 41 -66 70 -66 32 0 70 39
70 72 0 62 -70 89 -115 43z m72 -31 c3 -8 -1 -23 -10 -31 -23 -23 -52 0 -36
28 12 23 37 25 46 3z"/>
<path d="M966 1169 c-19 -15 -26 -30 -26 -55 0 -40 37 -84 70 -84 29 0 76 26
84 45 32 84 -57 150 -128 94z m84 -34 c14 -17 5 -51 -16 -59 -22 -8 -54 11
-54 32 0 38 46 56 70 27z"/>
<path d="M1925 1165 c-33 -33 -32 -70 4 -106 34 -34 68 -37 104 -9 33 26 41
63 23 99 -26 49 -91 57 -131 16z m93 -47 c5 -46 -59 -63 -71 -19 -7 30 12 53
41 49 21 -2 28 -9 30 -30z"/>
<path d="M1136 2241 c-20 -23 -7 -43 96 -149 77 -79 91 -90 130 -95 52 -7 84
0 117 24 23 18 24 18 57 -7 28 -22 40 -25 76 -19 74 11 93 23 181 121 137 150
107 155 -38 7 -79 -81 -89 -87 -135 -93 -54 -7 -59 -5 -76 25 -7 12 -24 21
-42 23 -26 3 -34 -2 -44 -22 -10 -23 -17 -26 -66 -26 l-54 0 -76 79 c-43 43
-90 86 -105 96 -19 12 -25 21 -18 28 7 7 15 6 24 -2 8 -6 85 -16 176 -23 245
-17 537 8 514 45 -3 5 -32 6 -77 1 -70 -9 -458 -9 -568 -1 -44 3 -61 0 -72
-12z"/>
<path d="M2564 1875 c-6 -11 -14 -47 -18 -80 -4 -33 -18 -84 -32 -114 -13 -30
-22 -56 -19 -59 10 -10 55 42 70 82 19 50 18 206 -1 171z"/>
<path d="M2603 1868 c2 -13 12 -57 21 -98 l17 -75 -24 -20 c-60 -49 -68 -55
-82 -55 -8 0 -15 -7 -15 -15 0 -8 8 -15 18 -15 28 0 111 57 124 85 21 46 -23
215 -55 215 -5 0 -7 -10 -4 -22z"/>
<path d="M377 1860 c-17 -38 -37 -118 -37 -149 0 -26 8 -41 36 -66 20 -19 50
-39 66 -46 26 -11 32 -10 51 9 l21 21 -26 48 c-15 26 -29 64 -32 84 -3 20 -10
49 -16 65 -9 23 -13 26 -20 14 -12 -23 8 -119 37 -173 15 -26 24 -49 21 -52
-3 -3 -28 9 -56 27 -57 37 -63 57 -41 142 11 46 8 104 -4 76z"/>
<path d="M2555 1528 c-33 -17 -84 -39 -114 -49 -87 -30 -108 -59 -84 -116 7
-18 14 -68 14 -112 1 -69 4 -82 24 -101 l23 -22 46 21 c66 29 167 98 191 129
16 22 21 46 23 134 3 97 2 108 -17 127 -27 27 -34 26 -106 -11z m91 -29 c-3
-17 -6 -67 -6 -111 0 -80 0 -81 -37 -114 -29 -26 -178 -114 -195 -114 -1 0 -3
42 -3 93 -1 68 -5 100 -18 125 -20 36 -16 52 14 52 27 0 145 48 189 76 50 33
64 31 56 -7z"/>
<path d="M354 1529 c-26 -29 -23 -210 5 -245 32 -41 113 -102 169 -129 l55
-26 23 22 c20 18 24 33 24 76 0 30 7 83 16 119 16 63 16 65 -4 87 -12 12 -43
29 -69 36 -26 8 -52 17 -58 22 -5 4 -40 19 -77 32 -66 25 -66 25 -84 6z m31
-9 c7 -12 136 -72 192 -90 48 -16 59 -26 46 -42 -19 -24 -36 -119 -30 -169 3
-27 2 -51 -3 -54 -5 -3 -24 5 -44 17 -19 13 -52 33 -73 46 -21 13 -54 36 -73
52 l-35 28 -3 111 c-3 73 -1 111 6 111 6 0 14 -4 17 -10z"/>
<path d="M432 1443 c-11 -25 -7 -126 6 -149 9 -15 11 1 12 74 0 50 -2 92 -5
92 -2 0 -8 -8 -13 -17z"/>
<path d="M2494 1100 c-34 -16 -73 -32 -87 -35 -46 -12 -58 -45 -61 -166 -3
-119 7 -149 48 -149 12 0 32 10 43 23 59 65 173 267 173 307 0 41 -26 17 -59
-56 -46 -100 -147 -254 -167 -254 -11 0 -14 5 -10 16 3 9 6 64 6 124 l0 108
63 21 c65 22 137 65 137 81 0 16 -22 11 -86 -20z"/>
<path d="M428 1107 c-21 -16 -24 -33 -14 -75 16 -66 139 -262 178 -283 14 -8
25 -6 44 6 23 15 24 19 24 134 0 105 -2 121 -21 145 -11 14 -26 26 -32 26 -7
0 -41 14 -75 30 -71 33 -80 35 -104 17z m155 -78 l37 -13 0 -104 c0 -57 5
-112 10 -123 9 -15 7 -19 -8 -19 -33 0 -192 267 -192 322 0 4 26 -6 58 -21 31
-16 74 -34 95 -42z"/>
<path d="M1541 965 c-35 -30 -52 -31 -76 -5 -30 33 -60 25 -101 -27 -21 -27
-51 -62 -67 -79 -21 -23 -27 -38 -22 -53 12 -40 40 -46 232 -46 l183 0 25 26
26 26 -46 54 c-26 30 -54 66 -62 81 -9 14 -27 31 -39 37 -19 8 -28 6 -53 -14z
m-91 -35 c7 -16 21 -32 32 -36 27 -8 66 14 70 40 6 39 34 30 58 -19 12 -25 40
-60 61 -77 21 -17 39 -35 39 -40 0 -11 -407 -10 -415 1 -3 5 10 22 29 36 19
15 49 49 66 76 18 27 36 49 40 49 4 0 13 -13 20 -30z"/>
<path d="M2209 851 c-56 -43 -179 -87 -339 -120 -95 -19 -366 -45 -391 -37 -8
2 -67 7 -132 11 -135 7 -145 8 -286 42 -140 33 -187 49 -242 84 -60 38 -84 37
-39 -2 201 -174 859 -226 1244 -98 77 26 140 56 174 83 68 54 62 61 62 -66 l0
-115 -90 -62 c-334 -231 -759 -274 -1132 -115 -79 33 -107 49 -198 112 -22 15
-51 32 -63 39 -20 11 -22 22 -27 120 -6 126 -24 145 -28 31 -5 -129 3 -144
115 -225 189 -136 390 -200 638 -205 216 -4 389 34 570 124 52 26 223 156 236
179 5 10 9 60 9 112 0 78 -3 97 -18 110 -24 22 -34 21 -63 -2z"/>
<path d="M2100 650 c0 -58 4 -89 10 -85 6 3 10 42 10 85 0 43 -4 82 -10 85 -6
4 -10 -27 -10 -85z"/>
<path d="M897 723 c-11 -10 -8 -161 3 -168 6 -4 10 27 10 84 0 91 -1 97 -13
84z"/>
<path d="M1480 542 c-37 -14 -51 -62 -26 -94 29 -39 106 -11 106 38 0 39 -44
70 -80 56z"/>
</g>
</svg>
